# 3ds Max Wavefront OBJ Exporter v0.97b - (c)2007 guruware
# 创建的文件:01.09.2013 16:04:35

mtllib stone0.mtl

#
# object Sphere04
#

v  208.3325 -200.8574 -20.0297
v  208.4305 -201.4664 -15.1653
v  208.2527 -199.6255 -18.7500
v  255.5517 -202.6691 23.3921
v  255.4819 -202.4784 21.4041
v  255.6862 -202.3549 24.4013
v  200.4229 -175.3324 -11.7211
v  202.6304 -172.4716 -0.6702
v  205.1220 -172.6193 -9.1385
v  203.9179 -196.1382 -19.3487
v  259.1811 -200.8933 23.6769
v  257.5797 -201.2717 28.8559
v  261.7133 -200.4574 13.1925
v  264.4142 -193.0943 18.2811
v  261.8668 -200.9792 19.6317
v  258.0484 -200.6397 2.6248
v  248.3199 -200.2794 -14.2747
v  262.8688 -200.0173 6.9231
v  230.4733 -178.1140 -3.5995
v  227.7423 -175.1931 -10.6291
v  213.9153 -172.7596 19.5078
v  224.2322 -172.8983 25.7354
v  244.2817 -173.5857 25.9205
v  234.0351 -173.1497 30.8268
v  236.4090 -175.3834 13.3905
v  245.0709 -173.9893 16.6523
v  238.3688 -176.6771 6.6360
v  254.2922 -174.5852 5.5187
v  246.2048 -174.8349 3.5735
v  247.2013 -175.0081 -7.5635
v  235.0987 -177.3394 -3.9668
v  235.0056 -178.7711 -0.5568
v  245.3857 -174.8582 -11.7255
v  215.5089 -189.0169 -31.2053
v  202.9339 -185.2619 -26.7794
v  206.0555 -175.9199 -22.6033
v  200.6960 -184.8967 -19.9581
v  214.3510 -172.9863 -17.5738
v  195.1258 -184.4499 -1.3819
v  198.7312 -175.0979 -1.4104
v  201.8312 -183.2189 11.0094
v  211.7071 -174.3991 21.5061
v  204.5724 -174.7467 11.1366
v  234.3564 -185.7791 38.2300
v  247.5349 -191.2159 36.0174
v  234.6401 -176.4480 34.6725
v  247.0034 -179.8956 32.5107
v  259.8753 -194.2785 31.0083
v  256.0147 -181.9998 27.3727
v  266.2867 -191.1076 4.6762
v  252.6836 -192.0773 -19.0082
v  216.6906 -198.6847 -29.2609
v  226.4984 -201.7674 -25.8763
v  209.3441 -201.9343 -21.4977
v  227.1165 -199.8693 -29.6854
v  211.6013 -197.7652 -26.4307
v  205.4436 -196.5952 -24.6564
v  207.7694 -199.7630 -22.8505
v  197.6518 -184.3346 -14.5394
v  206.6979 -200.8027 -3.9979
v  200.1243 -195.3236 -2.5651
v  201.3932 -195.6229 -15.1846
v  213.2905 -193.9200 19.4931
v  248.0491 -202.2593 25.3934
v  255.7337 -202.5000 26.3734
v  251.2641 -200.3241 30.3294
v  255.2099 -202.8493 25.4118
v  259.4244 -198.0279 24.7670
v  257.7770 -202.4031 17.0314
v  258.1822 -202.1196 13.0457
v  259.1721 -201.9475 7.6106
v  253.0495 -200.8752 -2.0820
v  239.2001 -199.7565 -22.9292
v  226.3572 -196.1574 -6.3720
v  229.4132 -196.6435 -10.3213
v  232.0979 -192.1736 -3.7337
v  213.9077 -200.5799 -5.9790
v  233.3883 -188.9284 -0.3098
v  220.3294 -199.8821 12.2737
v  222.9549 -197.0932 -2.1474
v  250.4083 -199.6998 4.0674
v  239.6736 -195.0176 6.6514
v  243.8601 -199.3388 -10.0146
v  235.2473 -198.8857 -13.6110
v  234.8895 -191.3921 -1.8975
v  221.6836 -200.9260 -17.9618
v  238.6895 -195.4539 -6.7483
v  215.8885 -177.6913 -26.4169
v  221.9051 -182.6863 31.2950
v  223.7699 -174.9493 29.8216
v  249.7966 -180.7522 -16.3244
v  235.2473 -197.1125 33.2154
v  236.9215 -201.4835 26.4658
v  245.9892 -199.5347 33.0177
v  236.1246 -196.4354 10.4338
v  236.7627 -191.7322 0.9053
v  230.0564 -174.3174 -19.5225
v  232.8082 -180.7747 1.1572
v  250.3538 -174.2731 23.5824
v  228.6428 -180.2131 -27.7541
v  228.8000 -192.4459 -33.0015
v  209.5692 -181.7269 23.4018
# 102 vertices

vn -0.9032 -0.4292 0.0011
vn -0.3596 -0.9321 -0.0436
vn -0.8575 -0.5015 -0.1148
vn 0.6041 -0.7918 -0.0899
vn 0.1298 -0.9915 0.0031
vn 0.7538 -0.6569 -0.0140
vn -0.7108 0.6510 -0.2665
vn -0.2685 0.9612 0.0627
vn -0.1717 0.9797 -0.1038
vn -0.7795 -0.5534 -0.2936
vn 0.6709 -0.6813 0.2927
vn 0.5116 -0.6890 0.5133
vn 0.7237 -0.6898 0.0222
vn 0.9740 0.0734 0.2141
vn 0.7199 -0.6593 0.2169
vn 0.3111 -0.9181 -0.2456
vn 0.3266 -0.9033 -0.2783
vn 0.7499 -0.6475 -0.1360
vn 0.0408 0.9133 0.4053
vn 0.0746 0.9769 0.2002
vn -0.1361 0.9823 0.1287
vn -0.0905 0.9710 0.2214
vn 0.2046 0.9376 0.2811
vn -0.0041 0.9050 0.4254
vn -0.0518 0.9684 -0.2440
vn -0.0731 0.9949 -0.0696
vn -0.3074 0.9356 -0.1739
vn 0.5229 0.8464 -0.1005
vn -0.1419 0.9890 -0.0426
vn 0.2667 0.9538 -0.1383
vn -0.1714 0.9296 0.3263
vn -0.3947 0.8723 0.2886
vn 0.3224 0.9109 -0.2576
vn -0.2169 0.0667 -0.9739
vn -0.6897 0.1268 -0.7129
vn -0.4350 0.7014 -0.5647
vn -0.9098 0.0639 -0.4100
vn 0.0061 0.9795 -0.2014
vn -0.9868 -0.0472 0.1550
vn -0.8017 0.5893 0.0996
vn -0.8606 -0.0680 0.5048
vn -0.5481 0.6325 0.5473
vn -0.6894 0.6072 0.3950
vn -0.1622 -0.0059 0.9867
vn 0.2587 -0.0497 0.9647
vn -0.0070 0.5686 0.8226
vn 0.4007 0.5196 0.7546
vn 0.7318 -0.0599 0.6789
vn 0.6912 0.5284 0.4931
vn 0.9758 0.1192 -0.1831
vn 0.7335 -0.0989 -0.6725
vn -0.2461 -0.5465 -0.8005
vn 0.0496 -0.9778 -0.2035
vn -0.3829 -0.8916 -0.2418
vn 0.1075 -0.6648 -0.7393
vn -0.4145 -0.4544 -0.7885
vn -0.6695 -0.5015 -0.5479
vn -0.6570 -0.6635 -0.3581
vn -0.9406 0.0398 -0.3373
vn -0.3661 -0.9219 0.1268
vn -0.7891 -0.5888 0.1749
vn -0.8168 -0.5216 -0.2467
vn -0.5634 -0.6255 0.5397
vn -0.0922 -0.9943 0.0539
vn 0.2986 -0.9307 0.2111
vn 0.0915 -0.7488 0.6565
vn 0.1718 -0.9789 0.1104
vn 0.8869 -0.3332 0.3201
vn 0.0904 -0.9949 -0.0438
vn 0.1110 -0.9933 -0.0308
vn 0.2272 -0.9678 -0.1086
vn -0.0527 -0.9982 -0.0298
vn 0.3779 -0.7180 -0.5845
vn 0.4281 -0.8545 0.2941
vn 0.1201 -0.8805 0.4586
vn 0.0636 -0.8009 0.5954
vn 0.1471 -0.9870 0.0651
vn -0.0602 -0.9919 0.1118
vn -0.0643 -0.9951 0.0751
vn 0.4817 -0.8737 0.0672
vn -0.3765 -0.9252 0.0470
vn -0.2946 -0.8990 -0.3241
vn -0.2455 -0.9421 0.2286
vn -0.1314 -0.8924 0.4317
vn -0.4303 -0.7628 0.4827
vn 0.1098 -0.9778 0.1786
vn -0.3407 -0.8382 0.4258
vn -0.0809 0.6525 -0.7534
vn -0.5136 -0.0270 0.8576
vn -0.3238 0.6310 0.7050
vn 0.6621 0.5110 -0.5482
vn -0.2918 -0.6143 0.7331
vn -0.1725 -0.9720 0.1598
vn 0.0746 -0.6806 0.7288
vn 0.0207 -0.9033 -0.4285
vn -0.5790 -0.8138 0.0501
vn 0.1518 0.9380 -0.3117
vn -0.1662 0.9812 0.0983
vn 0.4322 0.8399 0.3283
vn 0.2136 0.5717 -0.7922
vn 0.1957 -0.0548 -0.9791
vn -0.7134 -0.0007 0.7008
# 102 vertex normals

vt 0.1405 0.2830 0.0000
vt 0.1549 0.2778 0.0000
vt 0.1368 0.3097 0.0000
vt 0.6407 0.2824 0.0000
vt 0.6552 0.2778 0.0000
vt 0.6369 0.3092 0.0000
vt 0.2347 0.6239 0.0000
vt 0.2334 0.6602 0.0000
vt 0.2180 0.6591 0.0000
vt 0.1716 0.3412 0.0000
vt 0.1871 0.3398 0.0000
vt 0.1760 0.3764 0.0000
vt 0.6402 0.3398 0.0000
vt 0.6561 0.3409 0.0000
vt 0.6449 0.3761 0.0000
vt 0.7048 0.4375 0.0000
vt 0.7040 0.4688 0.0000
vt 0.6883 0.4688 0.0000
vt 0.7967 0.3409 0.0000
vt 0.8121 0.3398 0.0000
vt 0.8011 0.3761 0.0000
vt 0.0339 0.8960 0.0000
vt 0.0494 0.8649 0.0000
vt 0.0469 0.9063 0.0000
vt 0.1822 0.7932 0.0000
vt 0.2001 0.7574 0.0000
vt 0.1988 0.7847 0.0000
vt 0.4322 0.7932 0.0000
vt 0.4501 0.7574 0.0000
vt 0.4488 0.7847 0.0000
vt 0.5000 0.7813 0.0000
vt 0.5168 0.7495 0.0000
vt 0.5169 0.7807 0.0000
vt 0.6250 0.9063 0.0000
vt 0.6431 0.8649 0.0000
vt 0.6431 0.8960 0.0000
vt 0.6250 0.7813 0.0000
vt 0.6418 0.7495 0.0000
vt 0.6419 0.7807 0.0000
vt 0.7500 0.8438 0.0000
vt 0.7668 0.8166 0.0000
vt 0.7669 0.8476 0.0000
vt 0.8093 0.8476 0.0000
vt 0.8248 0.8166 0.0000
vt 0.8281 0.8438 0.0000
vt 0.8750 0.9063 0.0000
vt 0.8929 0.8655 0.0000
vt 0.8928 0.8966 0.0000
vt 0.9107 0.7807 0.0000
vt 0.9239 0.7514 0.0000
vt 0.9243 0.7872 0.0000
vt 0.1087 0.5313 0.0000
vt 0.1251 0.5321 0.0000
vt 0.1088 0.5633 0.0000
vt 0.1405 0.5000 0.0000
vt 0.1406 0.5321 0.0000
vt 0.1720 0.6557 0.0000
vt 0.1865 0.6602 0.0000
vt 0.1710 0.6908 0.0000
vt 0.2347 0.5932 0.0000
vt 0.2500 0.5943 0.0000
vt 0.3597 0.5932 0.0000
vt 0.3750 0.5943 0.0000
vt 0.3597 0.6239 0.0000
vt 0.3584 0.6602 0.0000
vt 0.3751 0.6557 0.0000
vt 0.3585 0.6908 0.0000
vt 0.5000 0.5318 0.0000
vt 0.5156 0.5000 0.0000
vt 0.5156 0.5318 0.0000
vt 0.5470 0.6557 0.0000
vt 0.5615 0.6602 0.0000
vt 0.5460 0.6908 0.0000
vt 0.6094 0.5318 0.0000
vt 0.6250 0.5318 0.0000
vt 0.6094 0.5636 0.0000
vt 0.6406 0.5000 0.0000
vt 0.6406 0.5318 0.0000
vt 0.7344 0.5318 0.0000
vt 0.7500 0.5318 0.0000
vt 0.7344 0.5636 0.0000
vt 0.7656 0.5000 0.0000
vt 0.7656 0.5318 0.0000
vt 0.0545 0.2753 0.0000
vt 0.0722 0.2486 0.0000
vt 0.0722 0.2818 0.0000
vt 0.0469 0.4682 0.0000
vt 0.0592 0.4747 0.0000
vt 0.0462 0.5014 0.0000
vt 0.0761 0.4748 0.0000
vt 0.0929 0.4727 0.0000
vt 0.0753 0.5060 0.0000
vt 0.1092 0.4696 0.0000
vt 0.1257 0.4676 0.0000
vt 0.1085 0.5020 0.0000
vt 0.1257 0.3448 0.0000
vt 0.1401 0.3398 0.0000
vt 0.1412 0.4684 0.0000
vt 0.1567 0.4685 0.0000
vt 0.1726 0.4687 0.0000
vt 0.1883 0.4688 0.0000
vt 0.1717 0.5000 0.0000
vt 0.2331 0.2819 0.0000
vt 0.2488 0.2819 0.0000
vt 0.2318 0.3136 0.0000
vt 0.2040 0.4688 0.0000
vt 0.2196 0.4687 0.0000
vt 0.2031 0.5000 0.0000
vt 0.2663 0.4682 0.0000
vt 0.2819 0.4682 0.0000
vt 0.2656 0.5000 0.0000
vt 0.3622 0.4062 0.0000
vt 0.3777 0.4057 0.0000
vt 0.3609 0.4369 0.0000
vt 0.6098 0.3432 0.0000
vt 0.6257 0.3443 0.0000
vt 0.6131 0.3739 0.0000
vt 0.6238 0.2819 0.0000
vt 0.6418 0.2505 0.0000
vt 0.6413 0.4682 0.0000
vt 0.6569 0.4682 0.0000
vt 0.6727 0.4687 0.0000
vt 0.6719 0.5000 0.0000
vt 0.7038 0.3443 0.0000
vt 0.7192 0.3432 0.0000
vt 0.7068 0.3739 0.0000
vt 0.7331 0.2819 0.0000
vt 0.7488 0.2819 0.0000
vt 0.7318 0.3136 0.0000
vt 0.7668 0.2505 0.0000
vt 0.7657 0.2824 0.0000
vt 0.7663 0.4682 0.0000
vt 0.7819 0.4682 0.0000
vt 0.9399 0.3398 0.0000
vt 0.9496 0.3094 0.0000
vt 0.9551 0.3446 0.0000
vt 0.0156 0.0313 0.0000
vt 0.0156 0.0623 0.0000
vt 0.0000 0.0313 0.0000
vt 0.1691 0.2068 0.0000
vt 0.1710 0.2426 0.0000
vt 0.1566 0.2153 0.0000
vt 0.2656 0.0313 0.0000
vt 0.2656 0.0623 0.0000
vt 0.2500 0.0313 0.0000
vt 0.2941 0.2068 0.0000
vt 0.2962 0.2426 0.0000
vt 0.2818 0.2153 0.0000
vt 0.7031 0.1563 0.0000
vt 0.6977 0.1834 0.0000
vt 0.6822 0.1524 0.0000
vt 0.6691 0.2068 0.0000
vt 0.6712 0.2426 0.0000
vt 0.6568 0.2153 0.0000
vt 0.7941 0.2068 0.0000
vt 0.7962 0.2426 0.0000
vt 0.7818 0.2153 0.0000
vt 0.8906 0.0313 0.0000
vt 0.8906 0.0623 0.0000
vt 0.8750 0.0313 0.0000
vt 0.9465 0.2153 0.0000
vt 0.9497 0.2426 0.0000
vt 0.9303 0.2068 0.0000
vt 0.8897 0.1524 0.0000
vt 0.8897 0.1834 0.0000
vt 0.8750 0.1563 0.0000
vt 0.9191 0.2068 0.0000
vt 0.9213 0.2426 0.0000
vt 0.9069 0.2153 0.0000
vt 0.1560 0.5949 0.0000
vt 0.1642 0.5788 0.0000
vt 0.1717 0.5949 0.0000
vt 0.1557 0.6273 0.0000
vt 0.0543 0.3085 0.0000
vt 0.0803 0.2969 0.0000
vt 0.0717 0.3109 0.0000
vt 0.1224 0.3148 0.0000
vt 0.6420 0.4364 0.0000
vt 0.6593 0.4068 0.0000
vt 0.6577 0.4363 0.0000
vt 0.6224 0.3137 0.0000
vt 0.7973 0.2747 0.0000
vt 0.8082 0.2693 0.0000
vt 0.8077 0.3046 0.0000
vt 0.7920 0.3045 0.0000
vt 0.0313 0.0625 0.0000
vt 0.0342 0.1034 0.0000
vt 0.7838 0.8204 0.0000
vt 0.7951 0.8279 0.0000
vt 0.7851 0.8375 0.0000
vt 0.0585 0.6250 0.0000
vt 0.0753 0.6241 0.0000
vt 0.0585 0.6602 0.0000
vt 0.2500 0.6250 0.0000
vt 0.2815 0.5625 0.0000
vt 0.2970 0.5312 0.0000
vt 0.2972 0.5625 0.0000
vt 0.2836 0.5745 0.0000
vt 0.3261 0.6955 0.0000
vt 0.3418 0.6954 0.0000
vt 0.3251 0.7307 0.0000
vt 0.4065 0.5625 0.0000
vt 0.4220 0.5312 0.0000
vt 0.4347 0.5610 0.0000
vt 0.4222 0.5625 0.0000
vt 0.4375 0.6250 0.0000
vt 0.4534 0.6239 0.0000
vt 0.4510 0.6583 0.0000
vt 0.4365 0.6602 0.0000
vt 0.5466 0.6261 0.0000
vt 0.5626 0.5938 0.0000
vt 0.5625 0.6250 0.0000
vt 0.5781 0.5943 0.0000
vt 0.5629 0.6455 0.0000
vt 0.7966 0.6261 0.0000
vt 0.8126 0.5938 0.0000
vt 0.8125 0.6250 0.0000
vt 0.8115 0.6602 0.0000
vt 0.8276 0.6588 0.0000
vt 0.8104 0.7055 0.0000
vt 0.8105 0.6954 0.0000
vt 0.0273 0.3085 0.0000
vt 0.0410 0.2753 0.0000
vt 0.0408 0.3085 0.0000
vt 0.1447 0.3764 0.0000
vt 0.1558 0.3412 0.0000
vt 0.1605 0.3779 0.0000
vt 0.1915 0.3750 0.0000
vt 0.2213 0.4051 0.0000
vt 0.2372 0.4062 0.0000
vt 0.2204 0.4375 0.0000
vt 0.2160 0.4019 0.0000
vt 0.4371 0.3398 0.0000
vt 0.4327 0.3046 0.0000
vt 0.4494 0.3092 0.0000
vt 0.4473 0.3327 0.0000
vt 0.5147 0.1834 0.0000
vt 0.5147 0.1524 0.0000
vt 0.5296 0.1796 0.0000
vt 0.5258 0.1921 0.0000
vt 0.6000 0.3752 0.0000
vt 0.6290 0.3750 0.0000
vt 0.6122 0.4062 0.0000
vt 0.6485 0.3221 0.0000
vt 0.6514 0.3046 0.0000
vt 0.6675 0.2693 0.0000
vt 0.6670 0.3045 0.0000
vt 0.6761 0.3761 0.0000
vt 0.6871 0.3398 0.0000
vt 0.6915 0.3750 0.0000
vt 0.9426 0.4627 0.0000
vt 0.9487 0.4515 0.0000
vt 0.9534 0.4628 0.0000
vt 0.9415 0.4921 0.0000
vt 0.4079 0.1625 0.0000
vt 0.4046 0.1796 0.0000
vt 0.3897 0.1524 0.0000
vt 0.4089 0.1487 0.0000
vt 0.5625 0.1250 0.0000
vt 0.5572 0.1524 0.0000
vt 0.5494 0.1351 0.0000
vt 0.7744 0.1643 0.0000
vt 0.7796 0.1796 0.0000
vt 0.7647 0.1834 0.0000
vt 0.7647 0.1524 0.0000
vt 0.9352 0.7873 0.0000
vt 0.9375 0.7579 0.0000
vt 0.9509 0.7560 0.0000
vt 0.9475 0.7846 0.0000
vt 0.1588 0.7847 0.0000
vt 0.1588 0.7488 0.0000
vt 0.1712 0.7574 0.0000
vt 0.2813 0.9375 0.0000
vt 0.2785 0.9345 0.0000
vt 0.2839 0.8960 0.0000
vt 0.2969 0.9063 0.0000
vt 0.4204 0.8815 0.0000
vt 0.4310 0.8204 0.0000
vt 0.4498 0.8166 0.0000
vt 0.4343 0.8476 0.0000
vt 0.6250 0.9688 0.0000
vt 0.6250 0.9375 0.0000
vt 0.6406 0.9377 0.0000
vt 0.6373 0.9586 0.0000
vt 0.6250 0.8750 0.0000
vt 0.6250 0.7500 0.0000
vt 0.7500 0.8125 0.0000
vt 0.7811 0.7936 0.0000
vt 0.8750 0.9375 0.0000
vt 0.8949 0.8526 0.0000
vt 0.8930 0.8456 0.0000
vt 0.8930 0.8146 0.0000
vt 0.9111 0.8165 0.0000
vt 0.0254 0.5489 0.0000
vt 0.0341 0.5307 0.0000
vt 0.0465 0.5372 0.0000
vt 0.0344 0.5665 0.0000
vt 0.0000 0.5625 0.0000
vt 0.0000 0.5313 0.0000
vt 0.0024 0.5166 0.0000
vt 0.0168 0.5287 0.0000
vt 0.0341 0.6858 0.0000
vt 0.0463 0.6554 0.0000
vt 0.0463 0.6906 0.0000
vt 0.0754 0.5937 0.0000
vt 0.1878 0.5625 0.0000
vt 0.1876 0.5312 0.0000
vt 0.2033 0.5313 0.0000
vt 0.1875 0.6250 0.0000
vt 0.2814 0.5313 0.0000
vt 0.3594 0.5636 0.0000
vt 0.3750 0.5318 0.0000
vt 0.3750 0.5637 0.0000
vt 0.4064 0.5313 0.0000
vt 0.4236 0.6795 0.0000
vt 0.4220 0.6557 0.0000
vt 0.4688 0.5637 0.0000
vt 0.4844 0.5318 0.0000
vt 0.4844 0.5636 0.0000
vt 0.5315 0.6863 0.0000
vt 0.5311 0.6568 0.0000
vt 0.6085 0.6908 0.0000
vt 0.6251 0.6557 0.0000
vt 0.6253 0.6863 0.0000
vt 0.6408 0.7181 0.0000
vt 0.6565 0.6863 0.0000
vt 0.6577 0.7176 0.0000
vt 0.7384 0.5166 0.0000
vt 0.7500 0.5000 0.0000
vt 0.9415 0.5253 0.0000
vt 0.9538 0.4986 0.0000
vt 0.9522 0.5339 0.0000
vt 0.9249 0.6560 0.0000
vt 0.9415 0.6250 0.0000
vt 0.9405 0.6583 0.0000
vt 0.9233 0.6812 0.0000
vt 0.1122 0.3736 0.0000
vt 0.1290 0.3750 0.0000
vt 0.1250 0.5000 0.0000
vt 0.1265 0.3245 0.0000
vt 0.1417 0.2505 0.0000
vt 0.1585 0.2512 0.0000
vt 0.2162 0.3137 0.0000
vt 0.3273 0.2732 0.0000
vt 0.3418 0.2512 0.0000
vt 0.3584 0.2505 0.0000
vt 0.3415 0.2824 0.0000
vt 0.3594 0.5000 0.0000
vt 0.3757 0.4682 0.0000
vt 0.3750 0.5000 0.0000
vt 0.3913 0.4682 0.0000
vt 0.3838 0.5020 0.0000
vt 0.4332 0.2693 0.0000
vt 0.4498 0.2778 0.0000
vt 0.4844 0.5000 0.0000
vt 0.5007 0.4682 0.0000
vt 0.5000 0.5000 0.0000
vt 0.5163 0.4682 0.0000
vt 0.5259 0.4748 0.0000
vt 0.5818 0.3739 0.0000
vt 0.5942 0.3432 0.0000
vt 0.5971 0.3727 0.0000
vt 0.6068 0.3136 0.0000
vt 0.6094 0.5000 0.0000
vt 0.6257 0.4682 0.0000
vt 0.6250 0.5000 0.0000
vt 0.6746 0.4057 0.0000
vt 0.7162 0.3137 0.0000
vt 0.7204 0.4375 0.0000
vt 0.7366 0.3986 0.0000
vt 0.7372 0.4062 0.0000
vt 0.7359 0.4369 0.0000
vt 0.7507 0.3443 0.0000
vt 0.7474 0.3137 0.0000
vt 0.7619 0.3092 0.0000
vt 0.8291 0.4688 0.0000
vt 0.8457 0.4375 0.0000
vt 0.8539 0.4191 0.0000
vt 0.8449 0.4687 0.0000
vt 0.0000 0.0000 0.0000
vt 0.1397 0.1524 0.0000
vt 0.1546 0.1796 0.0000
vt 0.1397 0.1834 0.0000
vt 0.1300 0.1354 0.0000
vt 0.1059 -0.0105 0.0000
vt 0.1431 0.1040 0.0000
vt 0.1250 0.0938 0.0000
vt 0.1250 0.0625 0.0000
vt 0.1875 0.1250 0.0000
vt 0.2031 0.1563 0.0000
vt 0.1822 0.1524 0.0000
vt 0.1968 0.2153 0.0000
vt 0.2168 0.2512 0.0000
vt 0.2001 0.2426 0.0000
vt 0.2500 0.1250 0.0000
vt 0.2647 0.1524 0.0000
vt 0.2500 0.1563 0.0000
vt 0.5156 0.0313 0.0000
vt 0.5313 0.0625 0.0000
vt 0.5156 0.0623 0.0000
vt 0.6549 0.0921 0.0000
vt 0.6589 0.1040 0.0000
vt 0.6744 0.1351 0.0000
vt 0.6614 0.1455 0.0000
vt 0.6397 0.1524 0.0000
vt 0.6546 0.1796 0.0000
vt 0.6397 0.1834 0.0000
vt 0.6250 0.2188 0.0000
vt 0.6250 0.2500 0.0000
vt 0.7587 0.0135 0.0000
vt 0.7656 0.0313 0.0000
vt 0.7813 0.0625 0.0000
vt 0.7656 0.0623 0.0000
vt 0.8921 0.2193 0.0000
vt 0.9091 0.2512 0.0000
vt 0.8920 0.2505 0.0000
vt 0.8835 0.2072 0.0000
vt 0.7591 0.2398 0.0000
vt 0.7669 0.2193 0.0000
vt 0.7838 0.2512 0.0000
vt 0.8750 0.0000 0.0000
vt 0.9098 0.0527 0.0000
vt 0.9219 0.0938 0.0000
vt 0.9375 0.1250 0.0000
vt 0.9244 0.1351 0.0000
vt 0.8750 0.0625 0.0000
# 426 texture coords

g Sphere04
usemtl wire_135110008
s 1
f 1/1/1 2/2/2 3/3/3 
f 4/4/4 5/5/5 6/6/6 
f 7/7/7 8/8/8 9/9/9 
f 3/10/3 2/11/2 10/12/10 
f 6/13/6 11/14/11 12/15/12 
f 13/16/13 14/17/14 15/18/15 
f 16/19/16 17/20/17 18/21/18 
f 19/22/19 20/23/20 8/24/8 
f 20/25/20 9/26/9 8/27/8 
f 21/28/21 22/29/22 23/30/23 
f 22/31/22 24/32/24 23/33/23 
f 25/34/25 26/35/26 27/36/27 
f 23/37/23 28/38/28 26/39/26 
f 26/40/26 29/41/29 27/42/27 
f 29/43/29 30/44/30 31/45/31 
f 32/46/32 31/47/31 19/48/19 
f 30/49/30 33/50/33 20/51/20 
f 34/52/34 35/53/35 36/54/36 
f 35/53/35 37/55/37 36/56/36 
f 36/57/36 9/58/9 38/59/38 
f 39/60/39 40/61/40 7/7/7 
f 41/62/41 42/63/42 43/64/43 
f 43/65/43 42/66/42 21/67/21 
f 44/68/44 45/69/45 46/70/46 
f 46/71/46 47/72/47 23/73/23 
f 45/74/45 48/75/48 49/76/49 
f 48/75/48 14/77/14 49/78/49 
f 14/79/14 28/80/28 49/81/49 
f 28/80/28 50/82/50 51/83/51 
f 52/84/52 53/85/53 54/86/54 
f 55/87/55 52/88/52 34/89/34 
f 52/90/52 56/91/56 34/92/34 
f 56/93/56 57/94/57 34/95/34 
f 58/96/58 3/3/3 57/97/57 
f 57/98/57 10/99/10 37/55/37 
f 10/100/10 59/101/59 37/102/37 
f 60/103/60 61/104/61 62/105/62 
f 59/106/59 61/107/61 39/108/39 
f 61/109/61 41/110/41 39/111/39 
f 61/112/61 63/113/63 41/114/41 
f 64/115/64 65/116/65 66/117/66 
f 67/118/67 5/119/5 4/4/4 
f 48/120/48 68/121/68 14/77/14 
f 68/122/68 15/18/15 14/123/14 
f 69/124/69 13/125/13 15/126/15 
f 70/127/70 71/128/71 13/129/13 
f 71/128/71 70/130/70 72/131/72 
f 18/132/18 51/133/51 50/82/50 
f 17/134/17 53/135/53 73/136/73 
f 74/137/74 75/138/75 76/139/76 
f 77/140/77 2/141/2 54/142/54 
f 78/143/78 79/144/79 80/145/80 
f 79/146/79 60/147/60 77/148/77 
f 81/149/81 69/150/69 82/151/82 
f 69/152/69 5/153/5 64/154/64 
f 83/155/83 72/156/72 81/157/81 
f 76/158/76 84/159/84 85/160/85 
f 86/161/86 53/162/53 84/163/84 
f 84/164/84 83/165/83 87/166/87 
f 84/167/84 53/168/53 83/169/83 
f 37/170/37 59/171/59 7/172/7 36/173/36 
f 52/174/52 54/86/54 58/175/58 56/176/56 
f 58/177/58 1/1/1 3/3/3 
f 12/178/12 11/179/11 68/180/68 
f 65/181/65 4/4/4 6/6/6 
f 71/182/71 72/183/72 17/184/17 16/185/16 
f 74/186/74 86/187/86 75/138/75 
f 27/42/27 29/188/29 31/189/31 32/190/32 
f 88/191/88 36/192/36 38/193/38 
f 7/7/7 40/194/40 8/8/8 
f 40/195/40 41/196/41 43/197/43 8/198/8 
f 43/199/43 21/200/21 8/201/8 
f 42/202/42 89/203/89 46/204/46 90/205/90 
f 90/206/90 46/207/46 24/208/24 22/209/22 
f 46/210/46 45/211/45 47/212/47 
f 47/212/47 45/211/45 49/213/49 23/214/23 
f 28/215/28 51/216/51 91/217/91 
f 28/218/28 91/219/91 33/220/33 30/221/30 
f 53/222/53 52/223/52 55/224/55 
f 57/225/57 3/226/3 10/227/10 
f 10/12/10 2/11/2 62/228/62 
f 62/229/62 61/230/61 59/231/59 10/232/10 
f 92/233/92 63/234/63 93/235/93 94/236/94 
f 93/237/93 95/238/95 64/239/64 94/240/94 
f 94/241/94 66/117/66 12/242/12 45/243/45 
f 6/244/6 5/245/5 69/246/69 11/247/11 
f 11/248/11 69/249/69 15/250/15 
f 73/251/73 53/252/53 55/253/55 51/254/51 
f 95/255/95 93/256/93 79/257/79 78/258/78 
f 82/259/82 64/260/64 95/261/95 
f 87/262/87 83/263/83 81/264/81 96/265/96 
f 20/266/20 33/267/33 97/268/97 38/269/38 
f 20/270/20 38/271/38 9/272/9 
f 98/273/98 19/274/19 8/275/8 21/276/21 
f 98/277/98 21/278/21 23/279/23 25/280/25 
f 98/281/98 25/282/25 27/283/27 32/284/32 
f 25/34/25 23/285/23 26/35/26 
f 23/37/23 99/286/99 28/38/28 
f 26/40/26 28/287/28 30/288/30 29/41/29 
f 98/289/98 32/46/32 19/48/19 
f 19/290/19 31/291/31 30/292/30 20/293/20 
f 97/294/97 100/295/100 34/296/34 88/297/88 
f 100/298/100 101/299/101 55/300/55 34/301/34 
f 88/302/88 38/303/38 97/304/97 
f 88/191/88 34/305/34 36/192/36 
f 7/306/7 59/307/59 39/308/39 
f 36/57/36 7/309/7 9/58/9 
f 40/195/40 39/310/39 41/196/41 
f 41/311/41 102/312/102 42/313/42 
f 42/202/42 102/314/102 89/203/89 
f 21/315/21 42/316/42 90/206/90 22/209/22 
f 46/317/46 89/318/89 44/319/44 
f 23/320/23 24/321/24 46/71/46 
f 23/322/23 49/323/49 99/324/99 
f 99/325/99 49/326/49 28/327/28 
f 14/79/14 13/328/13 50/329/50 28/80/28 
f 91/330/91 51/254/51 101/331/101 100/332/100 
f 33/333/33 91/334/91 100/335/100 97/336/97 
f 56/337/56 58/96/58 57/338/57 
f 34/95/34 57/94/57 35/339/35 
f 58/340/58 54/341/54 2/342/2 1/1/1 
f 35/339/35 57/98/57 37/55/37 
f 2/343/2 60/103/60 62/105/62 
f 61/344/61 60/345/60 79/346/79 63/347/63 
f 41/348/41 63/349/63 102/350/102 
f 102/350/102 63/349/63 92/351/92 89/352/89 
f 63/234/63 79/353/79 93/354/93 
f 89/355/89 92/356/92 44/357/44 
f 44/357/44 92/358/92 94/359/94 45/69/45 
f 94/360/94 64/361/64 66/362/66 
f 64/363/64 67/118/67 65/181/65 
f 66/117/66 65/116/65 12/242/12 
f 45/364/45 12/365/12 48/366/48 
f 48/120/48 12/178/12 68/180/68 
f 68/367/68 11/248/11 15/250/15 
f 12/242/12 65/116/65 6/13/6 
f 65/181/65 67/118/67 4/4/4 
f 69/124/69 70/368/70 13/125/13 
f 13/369/13 71/370/71 18/371/18 50/372/50 
f 18/373/18 71/374/71 16/375/16 
f 18/376/18 17/377/17 73/378/73 51/379/51 
f 51/254/51 55/253/55 101/331/101 
f 78/380/78 74/137/74 76/139/76 
f 86/381/86 77/382/77 54/383/54 53/384/53 
f 78/385/78 80/386/80 86/387/86 74/388/74 
f 80/389/80 77/390/77 86/391/86 
f 77/392/77 60/393/60 2/394/2 
f 80/395/80 79/396/79 77/397/77 
f 78/398/78 82/399/82 95/400/95 
f 78/401/78 96/402/96 81/403/81 82/404/82 
f 82/405/82 69/406/69 64/407/64 
f 64/408/64 5/119/5 67/409/67 
f 78/410/78 85/411/85 87/412/87 96/413/96 
f 83/414/83 53/415/53 17/416/17 72/417/72 
f 69/418/69 81/419/81 72/420/72 70/130/70 
f 78/421/78 76/158/76 85/160/85 
f 76/422/76 75/423/75 86/424/86 84/425/84 
f 85/160/85 84/159/84 87/426/87 
# 42 polygons - 116 triangles

